<?xml version="1.0" encoding="UTF-8"?>
<svg id="Layer_2" data-name="Layer 2" xmlns="http://www.w3.org/2000/svg" viewBox="0 0 500 500">
  <defs>
    <style>
      .cls-1 {
        fill: #fff;
      }

      .cls-1, .cls-2 {
        stroke-width: 0px;
      }

      .cls-2 {
        fill: #00b0a4;
      }
    </style>
  </defs>
  <g id="Layer_1-2" data-name="Layer 1">
    <rect class="cls-2" width="500" height="500" rx="90.71" ry="90.71"/>
    <path class="cls-1" d="m327.34,296.43c.47-.51.83-.92,1.21-1.34,24.96-26.8,34.77-58.4,28.25-94.36-5.8-31.98-23.34-56.68-51.41-72.93-33.66-19.49-68.67-20.47-103.33-2.88-30.05,15.26-48.49,40.2-56.03,73.11-2.48,10.8-2.39,21.79-2.38,32.79v129.77h68.73v-40.85c0-13.87,20.91-21.22,31.83-12.96.77.6,1.48,1.27,2.12,2l37.61,41.86c6.7,6.54,15.7,10.2,25.06,10.19,17.97,0,69.63-.09,72.76-.09l-54.43-64.3Zm-114.91-68.96c0-5.02-.09-10.16.89-15.04,4.01-19.86,22.34-32.83,42.64-30.56,21.37,2.39,37.07,22.93,33.71,44.15-.08.5-.16.99-.26,1.48-2.65,13.75-13.07,24.7-26.51,28.63l-50.47,14.75s-.05-25.91-.03-43.42h.03Z"/>
  </g>
</svg>