<svg xmlns="http://www.w3.org/2000/svg" viewBox="0 0 512 512">
  <defs>
    <linearGradient id="grad" x1="0%" y1="0%" x2="100%" y2="100%">
      <stop offset="0%" style="stop-color:#1D9BF0;stop-opacity:1" />
      <stop offset="100%" style="stop-color:#15202B;stop-opacity:1" />
    </linearGradient>
  </defs>
  <rect width="512" height="512" rx="100" fill="#15202B"/>
  <circle cx="256" cy="256" r="200" fill="url(#grad)" opacity="0.2"/>
  <path fill="#F7F9F9" d="M345.9 160.5c-15.6-15.6-40.9-15.6-56.6 0l-36.8 36.8c-3.1 3.1-3.1 8.2 0 11.3l11.3 11.3c3.1 3.1 8.2 3.1 11.3 0l36.8-36.8c3.1-3.1 8.2-3.1 11.3 0l22.6 22.6c3.1 3.1 3.1 8.2 0 11.3l-90.5 90.5c-3.1 3.1-8.2 3.1-11.3 0l-22.6-22.6c-3.1-3.1-8.2-3.1-11.3 0l-11.3 11.3c-3.1 3.1-3.1 8.2 0 11.3l22.6 22.6c15.6 15.6 40.9 15.6 56.6 0l90.5-90.5c15.6-15.6 15.6-40.9 0-56.6l-22.6-22.5zM222.7 306.4c-3.1-3.1-8.2-3.1-11.3 0l-22.6 22.6c-3.1 3.1-3.1 8.2 0 11.3l90.5 90.5c3.1 3.1 8.2 3.1 11.3 0l22.6-22.6c3.1-3.1 8.2-3.1 11.3 0l11.3 11.3c3.1 3.1 3.1 8.2 0 11.3l-22.6 22.6c-15.6 15.6-40.9 15.6-56.6 0l-90.5-90.5c-15.6-15.6-15.6-40.9 0-56.6l22.6-22.6c3.1-3.1 8.2-3.1 11.3 0l36.8 36.8c3.1 3.1 3.1 8.2 0 11.3l-11.3 11.3c-3.1 3.1-8.2 3.1-11.3 0l-3.8-3.7z"/>
</svg>